<?xml version="1.0" standalone="no"?>
<!DOCTYPE svg PUBLIC "-//W3C//DTD SVG 20010904//EN"
 "http://www.w3.org/TR/2001/REC-SVG-20010904/DTD/svg10.dtd">
<svg version="1.0" xmlns="http://www.w3.org/2000/svg"
 width="191.000000pt" height="191.000000pt" viewBox="0 0 191.000000 191.000000"
 preserveAspectRatio="xMidYMid meet">
<metadata>
Created by potrace 1.11, written by Peter Selinger 2001-2013
</metadata>
<g transform="translate(0.000000,191.000000) scale(0.100000,-0.100000)"
fill="#000000" stroke="none">
<path d="M810 1644 c-24 -7 -39 -38 -45 -96 -3 -29 -8 -60 -10 -68 -2 -8 -7
-37 -10 -65 -3 -27 -7 -60 -9 -71 -8 -42 -17 -100 -21 -134 -2 -19 -8 -64 -14
-100 -6 -36 -13 -87 -16 -115 -3 -27 -7 -61 -9 -75 -3 -14 -7 -45 -11 -70 -9
-69 -11 -79 -16 -85 -3 -3 -6 1 -7 7 0 7 -3 24 -6 38 -8 35 -25 119 -30 152
-3 15 -7 32 -10 36 -3 5 -8 24 -10 43 -11 77 -36 173 -48 185 -7 7 -28 15 -47
18 -47 7 -70 -21 -155 -185 -37 -74 -72 -138 -76 -142 -4 -5 -56 -8 -116 -9
-60 0 -116 -2 -124 -4 -11 -3 -15 -18 -13 -61 0 -32 1 -60 2 -63 2 -11 316 -4
337 7 11 7 38 46 59 88 22 42 43 79 47 81 4 2 10 -17 14 -43 5 -27 9 -50 9
-53 2 -5 15 -69 21 -100 1 -8 17 -80 34 -160 17 -80 33 -156 35 -170 3 -14 6
-32 8 -40 2 -8 7 -32 12 -53 11 -56 52 -80 117 -68 15 2 35 57 42 111 3 30 8
69 10 85 3 17 12 84 21 150 18 130 23 167 30 205 2 14 7 45 10 70 3 25 8 56
11 70 6 33 16 118 18 152 2 42 14 19 25 -47 19 -111 62 -358 65 -374 2 -9 7
-35 11 -58 13 -74 72 -101 125 -56 17 13 30 28 30 33 0 10 88 200 93 200 2 0
16 -33 31 -72 15 -40 31 -82 36 -93 4 -11 18 -47 31 -80 27 -74 47 -96 88 -97
29 -1 81 33 81 53 0 4 17 36 38 70 21 35 49 84 63 109 41 77 36 75 198 75
l146 0 2 66 2 65 -177 1 c-97 1 -189 -3 -203 -8 -16 -7 -38 -33 -62 -77 -20
-37 -45 -78 -55 -91 l-19 -23 -39 103 c-21 57 -39 106 -40 109 -1 7 -22 60
-40 102 -21 46 -54 63 -102 51 -16 -4 -35 -31 -71 -105 -27 -55 -51 -95 -55
-90 -3 5 -8 25 -10 44 -4 27 -21 123 -41 229 -2 9 -6 34 -9 55 -4 22 -8 46
-11 54 -2 8 -6 31 -9 50 -3 19 -12 71 -20 115 -9 44 -17 93 -20 108 -17 100
-48 129 -116 111z"/>
</g>
</svg>
